
        <svg xmlns="http://www.w3.org/2000/svg" xmlns:xlink="http://www.w3.org/1999/xlink" version="1.1" width="3162.1621621621625" height="764.2897913892384" viewBox="0 0 3162.1621621621625 764.2897913892384">
			
			<g transform="scale(8.108108108108109) translate(10, 10)">
				<defs id="SvgjsDefs1210"/><g id="SvgjsG1211" featureKey="symbolFeature-0" transform="matrix(0.9318795466382606,0,0,0.9318795466382606,-11.549715150802339,-9.701798194670262)" fill="#000"><g xmlns="http://www.w3.org/2000/svg"><g><polygon points="54.644,56.782 35.043,56.782 29.789,76.381 49.394,76.381   "/></g><g><polygon points="29.789,76.381 16.071,76.381 12.394,90.102 26.115,90.102   "/></g><g><polygon points="72.04,43.063 58.319,43.063 54.644,56.782 68.363,56.782   "/></g><g><polygon points="60.892,33.458 51.288,33.458 48.716,43.063 58.319,43.063   "/></g><g><polygon points="78.988,17.134 69.384,17.134 66.81,26.739 76.416,26.739   "/></g><g><polygon points="37.616,47.18 28.013,47.18 25.438,56.782 35.043,56.782   "/></g><g><polygon points="87.511,10.411 80.79,10.411 78.988,17.134 85.71,17.134   "/></g><g><polygon points="80.562,36.341 73.842,36.341 72.04,43.063 78.762,43.063   "/></g><g><polygon points="53.089,26.735 46.37,26.735 44.565,33.458 51.288,33.458   "/></g></g></g><g id="SvgjsG1212" featureKey="nameFeature-0" transform="matrix(1.1709602112645499,0,0,1.1709602112645499,87.09601865372963,7.353630611714605)" fill="#000"><path d="M2.48 40 l0 -28 l8.2 0 l6.68 10.84 l6.68 -10.84 l8.2 0 l0 28 l-7.72 0 l0 -16.08 l-7.16 10.96 l-0.16 0 l-7.12 -10.88 l0 16 l-7.6 0 z M47.48 40.52 c-6.8 0 -11.6 -4.52 -11.6 -11.24 l0 -0.08 c0 -6.32 4.52 -11.32 10.92 -11.32 c7.48 0 10.92 5.48 10.92 11.84 c0 0.48 0 1.04 -0.04 1.56 l-14.48 0 c0.6 2.36 2.32 3.56 4.68 3.56 c1.8 0 3.24 -0.68 4.8 -2.2 l4.2 3.48 c-2.08 2.64 -5.08 4.4 -9.4 4.4 z M43.08 27.4 l7.52 0 c-0.28 -2.4 -1.68 -3.92 -3.76 -3.92 c-2 0 -3.36 1.56 -3.76 3.92 z M69.72 40.48 c-5.12 0 -9.56 -4.28 -9.56 -11.2 l0 -0.08 c0 -7.04 4.4 -11.32 9.52 -11.32 c3.28 0 5.2 1.48 6.64 3.12 l0 -10.2 l7.6 0 l0 29.2 l-7.6 0 l0 -2.88 c-1.48 1.8 -3.36 3.36 -6.6 3.36 z M72.04 34.12 c2.44 0 4.4 -2.04 4.4 -4.92 l0 -0.08 c0 -2.84 -1.96 -4.88 -4.4 -4.88 s-4.44 2 -4.44 4.88 l0 0.08 c0 2.88 2 4.92 4.44 4.92 z M88.00000000000001 16.4 l0 -5.6 l7.92 0 l0 5.6 l-7.92 0 z M88.16000000000001 40 l0 -21.64 l7.6 0 l0 21.64 l-7.6 0 z M107.28 40 l0 -21.2 l-8.4 0 l0 -6.8 l24.56 0 l0 6.8 l-8.4 0 l0 21.2 l-7.76 0 z M125.00000000000001 40 l0 -21.64 l7.6 0 l0 4.36 c1.24 -2.96 3.24 -4.88 6.84 -4.72 l0 8 l-0.64 0 c-3.96 0 -6.2 2.28 -6.2 7.28 l0 6.72 l-7.6 0 z M147.32000000000002 40.48 c-4.12 0 -7.28 -2.36 -7.28 -6.68 l0 -0.08 c0 -4.48 3.4 -6.8 8.48 -6.8 c2 0 3.96 0.4 5.2 0.84 l0 -0.36 c0 -2.24 -1.4 -3.52 -4.32 -3.52 c-2.28 0 -4.04 0.44 -5.96 1.2 l-1.56 -5.36 c2.44 -1 5.04 -1.68 8.76 -1.68 c3.88 0 6.52 0.92 8.24 2.64 c1.64 1.6 2.32 3.84 2.32 6.88 l0 12.44 l-7.52 0 l0 -2.24 c-1.48 1.64 -3.52 2.72 -6.36 2.72 z M150.04000000000002 35.72 c2.2 0 3.76 -1.4 3.76 -3.56 l0 -1 c-0.76 -0.32 -1.84 -0.56 -2.96 -0.56 c-2.2 0 -3.48 1.08 -3.48 2.68 l0 0.08 c0 1.48 1.12 2.36 2.68 2.36 z M175.52 40.52 c-6.52 0 -11.32 -5.12 -11.32 -11.24 l0 -0.08 c0 -6.12 4.76 -11.28 11.6 -11.28 c4.44 0 7.4 1.92 9.24 4.84 l-5.16 3.84 c-1.04 -1.44 -2.2 -2.28 -4.04 -2.28 c-2.44 0 -4.24 2.16 -4.24 4.8 l0 0.08 c0 2.8 1.76 4.92 4.32 4.92 c1.8 0 2.96 -0.84 4.16 -2.24 l5.08 3.68 c-2 2.96 -4.88 4.96 -9.64 4.96 z M187.84 40 l0 -29.2 l7.6 0 l0 14.8 l5.88 -7.24 l8.6 0 l-7.52 8.68 l7.72 12.96 l-8.36 0 l-4.36 -7.36 l-1.96 2.28 l0 5.08 l-7.6 0 z M226.48000000000002 40.56 c-8.64 0 -15.04 -6.44 -15.04 -14.48 l0 -0.08 c0 -8.04 6.48 -14.56 15.12 -14.56 s15.04 6.44 15.04 14.48 l0 0.08 c0 8.04 -6.48 14.56 -15.12 14.56 z M226.56 33.56 c4.28 0 7.12 -3.44 7.12 -7.48 l0 -0.08 c0 -4.04 -2.92 -7.56 -7.2 -7.56 c-4.24 0 -7.08 3.44 -7.08 7.48 l0 0.08 c0 4.04 2.92 7.56 7.16 7.56 z"/></g>
			</g>
		</svg>
	